<mxfile host="65bd71144e">
    <diagram id="R2lEEEUBdFMjLlhIrx00" name="Page-1">
        <mxGraphModel dx="335" dy="294" grid="1" gridSize="10" guides="1" tooltips="1" connect="1" arrows="1" fold="1" page="1" pageScale="1" pageWidth="850" pageHeight="1100" math="0" shadow="0" extFonts="Permanent Marker^https://fonts.googleapis.com/css?family=Permanent+Marker">
            <root>
                <mxCell id="0"/>
                <mxCell id="1" parent="0"/>
                <mxCell id="18" style="edgeStyle=none;html=1;fontSize=8;" edge="1" parent="1" source="C-vyLk0tnHw3VtMMgP7b-2">
                    <mxGeometry relative="1" as="geometry">
                        <mxPoint x="280" y="300" as="targetPoint"/>
                    </mxGeometry>
                </mxCell>
                <mxCell id="C-vyLk0tnHw3VtMMgP7b-2" value="Movies" style="shape=table;startSize=20;container=1;collapsible=1;childLayout=tableLayout;fixedRows=1;rowLines=0;fontStyle=1;align=center;resizeLast=1;strokeColor=default;rounded=0;shadow=0;swimlaneLine=1;" parent="1" vertex="1" collapsed="1">
                    <mxGeometry x="240" y="120" width="80" height="130" as="geometry">
                        <mxRectangle x="240" y="120" width="110" height="20" as="alternateBounds"/>
                    </mxGeometry>
                </mxCell>
                <mxCell id="C-vyLk0tnHw3VtMMgP7b-3" value="" style="shape=partialRectangle;collapsible=0;dropTarget=0;pointerEvents=0;fillColor=none;points=[[0,0.5],[1,0.5]];portConstraint=eastwest;top=0;left=0;right=0;bottom=1;" parent="C-vyLk0tnHw3VtMMgP7b-2" vertex="1" visible="0">
                    <mxGeometry y="20" width="110" height="20" as="geometry"/>
                </mxCell>
                <mxCell id="C-vyLk0tnHw3VtMMgP7b-4" value="" style="shape=partialRectangle;overflow=hidden;connectable=0;fillColor=none;top=0;left=0;bottom=0;right=0;fontStyle=1;strokeColor=none;verticalAlign=top;" parent="C-vyLk0tnHw3VtMMgP7b-3" vertex="1">
                    <mxGeometry width="40" height="20" as="geometry">
                        <mxRectangle width="40" height="20" as="alternateBounds"/>
                    </mxGeometry>
                </mxCell>
                <mxCell id="C-vyLk0tnHw3VtMMgP7b-5" value="" style="shape=partialRectangle;overflow=hidden;connectable=0;fillColor=none;top=0;left=0;bottom=0;right=0;align=left;spacingLeft=6;fontStyle=5;strokeColor=none;" parent="C-vyLk0tnHw3VtMMgP7b-3" vertex="1">
                    <mxGeometry x="40" width="70" height="20" as="geometry">
                        <mxRectangle width="70" height="20" as="alternateBounds"/>
                    </mxGeometry>
                </mxCell>
                <mxCell id="10" value="&lt;font style=&quot;font-size: 10px;&quot;&gt;id (PK)&lt;/font&gt;" style="text;strokeColor=none;align=center;fillColor=none;html=1;verticalAlign=middle;whiteSpace=wrap;rounded=0;shadow=0;sketch=0;strokeWidth=8;" vertex="1" parent="1">
                    <mxGeometry x="240" y="140" width="80" height="30" as="geometry"/>
                </mxCell>
                <mxCell id="14" value="&lt;font style=&quot;font-size: 8px;&quot;&gt;name&lt;/font&gt;" style="text;strokeColor=none;align=center;fillColor=none;html=1;verticalAlign=middle;whiteSpace=wrap;rounded=0;shadow=0;sketch=0;strokeWidth=8;" vertex="1" parent="1">
                    <mxGeometry x="240" y="170" width="80" height="10" as="geometry"/>
                </mxCell>
                <mxCell id="15" value="&lt;font style=&quot;font-size: 8px;&quot;&gt;type (movies/series)&lt;/font&gt;" style="text;strokeColor=none;align=center;fillColor=none;html=1;verticalAlign=middle;whiteSpace=wrap;rounded=0;shadow=0;sketch=0;strokeWidth=8;" vertex="1" parent="1">
                    <mxGeometry x="240" y="190" width="80" height="10" as="geometry"/>
                </mxCell>
                <mxCell id="16" value="&lt;font style=&quot;font-size: 8px;&quot;&gt;genre (Enum)&lt;/font&gt;" style="text;strokeColor=none;align=center;fillColor=none;html=1;verticalAlign=middle;whiteSpace=wrap;rounded=0;shadow=0;sketch=0;strokeWidth=8;fontSize=10;" vertex="1" parent="1">
                    <mxGeometry x="240" y="210" width="80" height="10" as="geometry"/>
                </mxCell>
                <mxCell id="17" value="seen (&lt;span class=&quot;hljs-type&quot;&gt;Boolean&lt;/span&gt;)" style="text;strokeColor=none;align=center;fillColor=none;html=1;verticalAlign=middle;whiteSpace=wrap;rounded=0;shadow=0;sketch=0;strokeWidth=8;fontSize=8;" vertex="1" parent="1">
                    <mxGeometry x="240" y="230" width="80" height="10" as="geometry"/>
                </mxCell>
                <mxCell id="19" value="edit, delete, save" style="text;strokeColor=none;align=center;fillColor=none;html=1;verticalAlign=middle;whiteSpace=wrap;rounded=0;shadow=0;sketch=0;strokeWidth=8;fontSize=8;" vertex="1" parent="1">
                    <mxGeometry x="280" y="260" width="70" height="30" as="geometry"/>
                </mxCell>
                <mxCell id="20" value="[Operations]" style="text;strokeColor=none;align=center;fillColor=none;html=1;verticalAlign=middle;whiteSpace=wrap;rounded=0;shadow=0;sketch=0;strokeWidth=8;fontSize=8;" vertex="1" parent="1">
                    <mxGeometry x="250" y="290" width="60" height="30" as="geometry"/>
                </mxCell>
                <mxCell id="21" value="&amp;nbsp;(&lt;span class=&quot;hljs-keyword&quot;&gt;Update&lt;/span&gt;&lt;span class=&quot;hljs-operator&quot;&gt;/&lt;/span&gt;&lt;span class=&quot;hljs-keyword&quot;&gt;Insert&lt;/span&gt;&lt;span class=&quot;hljs-operator&quot;&gt;/&lt;/span&gt;&lt;span class=&quot;hljs-keyword&quot;&gt;Delete&lt;/span&gt; records &lt;span class=&quot;hljs-keyword&quot;&gt;in&lt;/span&gt; Movies)" style="text;strokeColor=none;align=center;fillColor=none;html=1;verticalAlign=middle;whiteSpace=wrap;rounded=0;shadow=0;sketch=0;strokeWidth=8;fontSize=8;" vertex="1" parent="1">
                    <mxGeometry x="270" y="310" width="150" height="30" as="geometry"/>
                </mxCell>
            </root>
        </mxGraphModel>
    </diagram>
</mxfile>